# xmcd
#
# Track frame offsets: 
#        150
#        21454
#        42661
#        66257
#        85137
#        109525
#        125060
#        140206
#        161644
#        184248
#        199788
#        222121
#        236080
#        259448
#        276847
#        292552
#        311108
#        330833
#
# Disc length: 4794 seconds
#
# Revision: 0
# Processed by: cddbd v1.5.2PL0 Copyright (c) Steve Scherf et al.
# Submitted via: ExactAudioCopy v1.3
#
DISCID=1912b812
DTITLE=Various Artist - Akella Presents - vol. 144 - Rockin' Blues  C
DTITLE=D2
DYEAR=2018
DGENRE=Blues
TTITLE0=Louis King - The Devil Made Me do It
TTITLE1=The Fabulous Thunderbirds - Roll Of The Dice
TTITLE2=Mojo Watson - I'm A Rollin' Stone
TTITLE3=Buddy Guy - On The Road
TTITLE4=Curtis Matheson - Conscience Made Of Steel
TTITLE5=WT Feaster - Goin' Out That Way
TTITLE6=John Campbelljohn - I Got It All
TTITLE7=Howard 'Guitar' Luedtke - Blue and Lonesome
TTITLE8=Albert Castiglia - Cadillac Assembly Line
TTITLE9=The Blues Overdrive - Rolling Thunder
TTITLE10=Paul Thorn - Snake Farm
TTITLE11=Carson Cole - Jesus Knows The Blues
TTITLE12=Bobby Flurie - Little Wing
TTITLE13=Rocky Athas - You Move Me
TTITLE14=Damon Fowler - 28 Degrees
TTITLE15=Marcus Malone - Runnin
TTITLE16=The Beat Daddys - Fuel for My Blues
TTITLE17=Marc Ford - Freedom Fighter
EXTD=
EXTT0=
EXTT1=
EXTT2=
EXTT3=
EXTT4=
EXTT5=
EXTT6=
EXTT7=
EXTT8=
EXTT9=
EXTT10=
EXTT11=
EXTT12=
EXTT13=
EXTT14=
EXTT15=
EXTT16=
EXTT17=
PLAYORDER=
